<svg viewBox="0 0 88 60" width="176" height="120" fill="none" xmlns="http://www.w3.org/2000/svg">
  <ellipse cx="44" cy="51" rx="26" ry="6" fill="#3B82F6" opacity="0.2" />

  <path d="M30 51C31 43 36 37 44 37C52 37 57 43 58 51" fill="#3B82F6" />

  <path
    d="M28 22C28 13 34 7 41 7H47C54 7 60 13 60 22V34C60 43 54 49 47 49H41C34 49 28 43 28 34V22Z"
    fill="#3B82F6"
    opacity="0.94"
  />

  <path d="M30 36C32 36 34 36 36 36C36 37 36 38 36 39" fill="#F6F7F9" opacity="0.85" />
  <path d="M52 36C54 36 56 36 58 36C58 37 58 38 58 39" fill="#F6F7F9" opacity="0.85" />

  <ellipse cx="44" cy="30" rx="8.5" ry="6.5" fill="#F6F7F9" />

  <circle cx="39" cy="24" r="3.2" fill="#FFFFFF" />
  <circle cx="49" cy="24" r="3.2" fill="#FFFFFF" />
  <circle cx="39.5" cy="24.4" r="2" fill="#1E293B" />
  <circle cx="49.5" cy="24.4" r="2" fill="#1E293B" />
  <circle cx="40" cy="23.5" r="0.6" fill="#FFFFFF" opacity="0.65" />
  <circle cx="50" cy="23.5" r="0.6" fill="#FFFFFF" opacity="0.65" />

  <circle cx="44" cy="27.5" r="2.2" fill="#E5484D" />

  <path d="M42 29.5C43 30.5 45 30.5 46 29.5" stroke="#94A3B8" strokeWidth="0.5" strokeLinecap="round" />

  <path
    d="M26 19C26 9 33 3 41 3H47C55 3 62 9 62 19V17C62 7 55 1 47 1H41C33 1 26 7 26 17V19Z"
    fill="#EFCD27"
  />
  <path d="M24 19.5C24 18 25.5 17 28 17H60C62.5 17 64 18 64 19.5V21C64 22.5 62.5 23.5 60 23.5H28C25.5 23.5 24 22.5 24 21V19.5Z" fill="#E7C324" />
  <path d="M34 7C36 4 39 2 41 2H47C49 2 52 4 54 7" fill="#F1E159" opacity="0.5" />
  <circle cx="44" cy="4" r="2.5" fill="#FFE566" />
  <circle cx="44" cy="4" r="1.5" fill="#FFF8DC" opacity="0.55" />

  <path d="M35 24C32 28 30 32 32 36" stroke="#3B82F6" strokeWidth="3.5" strokeLinecap="round" />
  <path d="M53 24C56 28 58 32 56 36" stroke="#3B82F6" strokeWidth="3.5" strokeLinecap="round" />

  <g>
    <path d="M56 35C61 33 64 33 67 35.5" stroke="#3B82F6" strokeWidth="3.5" strokeLinecap="round" />
    <path d="M67 35.5L70 27" stroke="#3B82F6" strokeWidth="2.8" strokeLinecap="round" />
    <path d="M68.5 25.5L75.5 27L72.5 33.5L65.5 32Z" fill="#D84B55" stroke="#3B82F6" strokeWidth="1.5" strokeLinejoin="round" />
  </g>

  <path d="M34 49C35 44 38 41 42 41" stroke="#3B82F6" strokeWidth="3.5" strokeLinecap="round" />
  <path d="M46 41C50 41 53 44 54 49" stroke="#3B82F6" strokeWidth="3.5" strokeLinecap="round" />

  <circle cx="68" cy="15" r="1.1" fill="#F3B8BD" />
  <circle cx="72" cy="12" r="1.3" fill="#F3B8BD" />
  <circle cx="75" cy="16" r="1" fill="#F3B8BD" />
</svg>